#!OML:ASF E:\Steps\Project 1\Capture day 1\Session 2\Subject.ASF
:FULLY-SPECIFIED
:DEGREES
362
root 8.97807 15.8889 13.4661 -159.991 1.31062 178.113
lowerback -17.4238 -2.46163 -4.92609
upperback -0.63548 -2.09823 0.202722
thorax 9.30348 -1.1381 2.50313
lowerneck 2.37567 -0.114909 -2.12532
upperneck -0.386962 -0.151659 3.63498
head -0.513646 -0.0895464 1.48315
rclavicle 1.9953e-014 1.05356e-014
rhumerus -38.3981 -8.92095 -84.0897
rradius 35.8004
rwrist -3.23063
rhand -7.425 -51.5379
rfingers 7.12502
rthumb 18.462 -80.6818
lclavicle 1.9953e-014 1.05356e-014
lhumerus -30.3101 -2.78146 84.1769
lradius 24.1918
lwrist -3.08924
lhand -22.9482 -14.9765
lfingers 7.12502
lthumb 3.49308 14.9747
rfemur -36.5815 6.76962 16.6892
rtibia 37.0088
rfoot -29.8516 -8.48885
rtoes -22.122
lfemur -37.0666 -8.11575 -22.0657
ltibia 38.7637
lfoot -19.4083 5.88184
ltoes -26.0222
363
root 8.98314 15.9473 13.4393 -159.518 1.28796 178.168
lowerback -18.8842 -2.52891 -4.82882
upperback -0.160536 -2.12036 0.153016
thorax 10.6489 -1.17929 2.34298
lowerneck 2.45229 -0.102948 -2.22535
upperneck -1.09558 -0.12493 3.70051
head -0.748315 -0.0823787 1.52534
rclavicle -1.41634e-014 -5.56597e-015
rhumerus -37.389 -9.18828 -84.3014
rradius 35.566
rwrist -3.11839
rhand -7.19552 -51.6316
rfingers 7.12502
rthumb 18.6828 -80.7545
lclavicle -1.41634e-014 -5.56597e-015
lhumerus -29.3928 -2.72804 84.0432
lradius 24.2277
lwrist -2.80095
lhand -22.7704 -14.6288
lfingers 7.12502
lthumb 3.66484 15.3194
rfemur -36.298 6.84298 16.6567
rtibia 35.5629
rfoot -29.139 -8.54217
rtoes -22.412
lfemur -36.7618 -8.12377 -21.8738
ltibia 37.2665
lfoot -18.7071 5.98
ltoes -26.2389
364
root 8.98858 16.0064 13.4032 -159.142 1.26499 178.297
lowerback -19.3971 -2.56846 -4.8716
upperback -0.286525 -2.13238 0.27881
thorax 10.805 -1.18336 2.49377
lowerneck 2.29037 -0.102319 -2.25115
upperneck -0.835597 -0.129783 3.66671
head -0.639562 -0.0816944 1.51693
rclavicle 2.25124e-014 1.05356e-014
rhumerus -37.5351 -9.27262 -84.0757
rradius 35.5351
rwrist -3.11509
rhand -6.97181 -51.4461
rfingers 7.12502
rthumb 18.8979 -80.5481
lclavicle 2.25124e-014 1.05356e-014
lhumerus -29.5849 -2.84447 84.2427
lradius 24.4164
lwrist -2.55419
lhand -22.5367 -14.1737
lfingers 7.12502
lthumb 3.89048 15.7705
rfemur -35.7592 6.97424 16.731
rtibia 34.0073
rfoot -28.5224 -8.55339
rtoes -22.8975
lfemur -36.2279 -8.13355 -21.6179
ltibia 35.6356
lfoot -18.0323 6.14109
ltoes -26.4042
365
root 8.9929 16.0625 13.37 -158.701 1.13254 178.38
lowerback -19.1049 -2.59144 -4.77153
upperback -0.988201 -2.15523 0.284141
thorax 9.85553 -1.13343 2.45883
lowerneck 2.11714 -0.132188 -2.18003
upperneck 0.0792595 -0.179191 3.75422
head -0.325224 -0.0972698 1.52829
rclavicle 1.39149e-015 1.39149e-015
rhumerus -38.7155 -9.43662 -83.8427
rradius 35.7156
rwrist -2.99784
rhand -6.99206 -52.1018
rfingers 7.12502
rthumb 18.8785 -81.2056
lclavicle 1.39149e-015 1.39149e-015
lhumerus -30.6116 -2.92073 84.2676
lradius 24.5462
lwrist -2.47542
lhand -22.5237 -14.1517
lfingers 7.12502
lthumb 3.9031 15.7923
rfemur -35.3253 7.02302 16.7586
rtibia 32.5886
rfoot -28.1567 -8.50982
rtoes -22.2254
lfemur -35.8126 -8.16739 -21.3995
ltibia 34.0681
lfoot -17.3401 6.15345
ltoes -26.9386
366
root 8.99507 16.1128 13.3375 -158.26 1.02256 178.446
lowerback -18.3985 -2.66824 -4.85154
upperback -1.97621 -2.22709 0.45036
thorax 8.39303 -1.0916 2.70352
lowerneck 1.95455 -0.137841 -2.22752
upperneck 1.31985 -0.200832 3.75328
head 0.0854666 -0.0928804 1.53373
rclavicle -6.78353e-015 -6.36111e-015
rhumerus -40.2323 -9.3379 -83.2982
rradius 35.811
rwrist -2.70179
rhand -6.81345 -52.92
rfingers 7.12502
rthumb 19.0502 -82.007
lclavicle -6.78353e-015 -6.36111e-015
lhumerus -32.0362 -2.51692 84.4215
lradius 24.6364
lwrist -2.74399
lhand -22.6191 -14.481
lfingers 7.12502
lthumb 3.81092 15.4646
rfemur -34.9104 7.06686 16.7488
rtibia 31.1359
rfoot -27.6841 -8.43056
rtoes -21.0702
lfemur -35.4613 -8.19675 -21.2222
ltibia 32.5776
lfoot -16.6452 6.27838
ltoes -28.4072
367
root 8.99965 16.1597 13.3037 -157.851 1.05196 178.493
lowerback -20.2797 -2.68274 -4.64012
upperback -1.19046 -2.19622 0.296197
thorax 10.282 -1.12829 2.36422
lowerneck 1.95729 -0.146099 -2.34664
upperneck 0.314796 -0.203151 3.87455
head -0.225044 -0.106298 1.59506
rclavicle -1.13804e-014 -4.57205e-015
rhumerus -38.6692 -9.8221 -83.6092
rradius 35.2814
rwrist -2.18275
rhand -6.17995 -51.2962
rfingers 7.12502
rthumb 19.6594 -80.3221
lclavicle -1.13804e-014 -4.57205e-015
lhumerus -30.7053 -2.46184 84.1088
lradius 24.6233
lwrist -2.58867
lhand -22.4021 -14.5754
lfingers 7.12502
lthumb 4.02047 15.3664
rfemur -34.4565 7.07854 16.7342
rtibia 29.5924
rfoot -26.9384 -8.41295
rtoes -21.4504
lfemur -35.0138 -8.18898 -21.0859
ltibia 31.0409
lfoot -15.9598 6.67666
ltoes -30.8252
368
root 9.00416 16.2045 13.2682 -157.468 1.06627 178.483
lowerback -20.9611 -2.75841 -4.66065
upperback -1.18624 -2.24205 0.333976
thorax 10.6709 -1.15081 2.38879
lowerneck 2.03777 -0.0940657 -2.4735
upperneck 0.224212 -0.137569 3.85883
head -0.268864 -0.0756157 1.61233
rclavicle 7.00716e-015 9.14409e-015
rhumerus -38.5103 -9.72835 -83.5557
rradius 35.2006
rwrist -2.08298
rhand -5.82727 -50.2451
rfingers 7.12502
rthumb 19.9984 -79.236
lclavicle 7.00716e-015 9.14409e-015
lhumerus -30.6984 -2.39477 84.1533
lradius 24.7878
lwrist -2.45544
lhand -22.1834 -14.7252
lfingers 7.12502
lthumb 4.23164 15.2126
rfemur -33.9125 7.08592 16.652
rtibia 27.9124
rfoot -26.1741 -8.40497
rtoes -21.9046
lfemur -34.4835 -8.31073 -20.9814
ltibia 29.4829
lfoot -15.3315 6.92026
ltoes -31.8097
369
root 9.0039 16.2435 13.2281 -157.057 0.931548 178.508
lowerback -21.8301 -2.74568 -4.53767
upperback -1.19458 -2.17096 0.2384
thorax 11.1281 -1.10361 2.21594
lowerneck 2.68017 -0.128307 -2.35661
upperneck -0.114407 -0.177454 3.93516
head -0.481012 -0.102647 1.62009
rclavicle -2.59911e-014 -7.55382e-015
rhumerus -38.7059 -10.0286 -83.5544
rradius 35.3506
rwrist -2.02306
rhand -6.60487 -53.0258
rfingers 7.12502
rthumb 19.2508 -82.093
lclavicle -2.59911e-014 -7.55382e-015
lhumerus -30.6887 -2.6534 84.1111
lradius 24.9231
lwrist -2.42773
lhand -22.0406 -14.6128
lfingers 7.12502
lthumb 4.3696 15.3222
rfemur -33.3086 7.03302 16.6096
rtibia 26.1347
rfoot -25.5283 -8.26473
rtoes -21.092
lfemur -33.9924 -8.58233 -20.8254
ltibia 27.9441
lfoot -14.7422 6.9499
ltoes -31.4622
370
root 9.00543 16.2773 13.1928 -156.588 0.856511 178.543
lowerback -20.2637 -2.90305 -4.67806
upperback -2.81393 -2.32714 0.505662
thorax 8.49737 -1.04789 2.61565
lowerneck 2.79552 -0.0525315 -2.45043
upperneck 1.67667 -0.0954128 3.82178
head 0.0513832 -0.0394511 1.59504
rclavicle 1.34677e-014 -5.96354e-016
rhumerus -41.4674 -9.31185 -82.7971
rradius 35.859
rwrist -2.22912
rhand -6.6541 -51.426
rfingers 7.12502
rthumb 19.2035 -80.4979
lclavicle 1.34677e-014 -5.96354e-016
lhumerus -33.2546 -2.45419 84.515
lradius 25.3886
lwrist -2.43863
lhand -22.0166 -14.261
lfingers 7.12502
lthumb 4.39278 15.6735
rfemur -32.8692 6.95254 16.5848
rtibia 24.5398
rfoot -24.9348 -8.14115
rtoes -20.7021
lfemur -33.6849 -8.66226 -20.7138
ltibia 26.5811
lfoot -14.1129 7.08786
ltoes -32.3764
371
root 9.01047 16.3095 13.1703 -156.07 0.913636 178.486
lowerback -22.1321 -2.88723 -4.47051
upperback -2.13418 -2.23856 0.197556
thorax 10.2364 -1.04366 2.1285
lowerneck 2.83523 -0.0952505 -2.41035
upperneck 0.736196 -0.144761 3.99305
head -0.244695 -0.0771246 1.64513
rclavicle -2.18663e-015 1.98785e-016
rhumerus -40.2581 -9.99294 -83.2268
rradius 35.5744
rwrist -1.83208
rhand -6.7581 -50.668
rfingers 7.12502
rthumb 19.1035 -79.7498
lclavicle -2.18663e-015 1.98785e-016
lhumerus -32.0455 -2.98025 84.1662
lradius 25.456
lwrist -1.78731
lhand -22.3217 -14.4561
lfingers 7.12502
lthumb 4.09814 15.4842
rfemur -32.6487 6.97489 16.4114
rtibia 23.1264
rfoot -24.2876 -8.14311
rtoes -20.8676
lfemur -33.5761 -8.59117 -20.713
ltibia 25.3979
lfoot -13.4826 7.24812
ltoes -34.067
372
root 9.01357 16.3376 13.1447 -155.652 0.997516 178.488
lowerback -21.9724 -2.99417 -4.85982
upperback -2.68418 -2.26798 0.499173
thorax 9.56713 -1.0294 2.69158
lowerneck 2.50803 -0.0725717 -2.47557
upperneck 1.59907 -0.122697 3.83468
head 0.0765045 -0.053642 1.6035
rclavicle -2.50966e-015 1.09332e-014
rhumerus -40.8776 -9.67675 -82.6284
rradius 35.455
rwrist -1.81912
rhand -7.19962 -50.9693
rfingers 7.12502
rthumb 18.6788 -80.0925
lclavicle -2.50966e-015 1.09332e-014
lhumerus -32.8558 -2.8825 84.6722
lradius 25.6838
lwrist -1.65693
lhand -22.3947 -14.6702
lfingers 7.12502
lthumb 4.02758 15.2714
rfemur -32.3296 7.05896 16.312
rtibia 21.743
rfoot -23.6007 -8.14231
rtoes -21.3998
lfemur -33.2388 -8.56359 -20.6447
ltibia 23.9836
lfoot -12.8255 7.3673
ltoes -35.1013
373
root 9.01677 16.3605 13.1124 -155.355 1.0104 178.583
lowerback -22.8755 -2.94037 -4.59265
upperback -2.49781 -2.18568 0.335652
thorax 10.2386 -0.988355 2.36169
lowerneck 2.53876 -0.115701 -2.46659
upperneck 1.39217 -0.176742 4.04486
head 0.00919968 -0.0825506 1.67001
rclavicle 7.60351e-015 -1.17283e-014
rhumerus -40.6453 -9.97185 -82.8141
rradius 35.3563
rwrist -1.64353
rhand -7.26255 -51.1712
rfingers 7.12502
rthumb 18.6183 -80.3002
lclavicle 7.60351e-015 -1.17283e-014
lhumerus -32.6413 -3.30174 84.526
lradius 25.9599
lwrist -1.36893
lhand -21.9714 -14.2761
lfingers 7.12502
lthumb 4.43643 15.6575
rfemur -31.7526 7.12552 16.3707
rtibia 20.1961
rfoot -22.9259 -8.09893
rtoes -21.7591
lfemur -32.6595 -8.55961 -20.4702
ltibia 22.4061
lfoot -12.2202 7.40004
ltoes -34.9226
374
root 9.02242 16.3816 13.0821 -155.11 1.0133 178.608
lowerback -23.4311 -2.89832 -4.56575
upperback -2.48826 -2.0745 0.232504
thorax 10.5355 -0.928355 2.25679
lowerneck 2.594 -0.186488 -2.38821
upperneck 1.40904 -0.26638 4.18098
head 0.00822273 -0.125739 1.70072
rclavicle 5.11871e-015 -1.59028e-015
rhumerus -40.787 -10.2482 -82.796
rradius 35.3689
rwrist -1.63335
rhand -7.0734 -51.2649
rfingers 7.12502
rthumb 18.8002 -80.3763
lclavicle 5.11871e-015 -1.59028e-015
lhumerus -32.609 -3.66282 84.5041
lradius 26.2035
lwrist -1.15131
lhand -21.5006 -14.1098
lfingers 7.12502
lthumb 4.89097 15.8138
rfemur -31.1141 7.27499 16.3365
rtibia 18.6664
rfoot -22.3504 -8.12421
rtoes -21.339
lfemur -32.0992 -8.57721 -20.3689
ltibia 20.9928
lfoot -11.7211 7.41979
ltoes -34.863
375
root 9.02931 16.3991 13.0559 -154.911 1.01942 178.594
lowerback -23.8164 -2.87289 -4.70159
upperback -2.48302 -1.96505 0.195025
thorax 10.7446 -0.879244 2.32189
lowerneck 2.37834 -0.271895 -2.27227
upperneck 1.59457 -0.376528 4.23759
head 0.105615 -0.175184 1.69854
rclavicle -3.97569e-015 5.1684e-015
rhumerus -40.6885 -10.5247 -82.6767
rradius 35.2058
rwrist -1.77386
rhand -7.22601 -51.2538
rfingers 7.12502
rthumb 18.6534 -80.3794
lclavicle -3.97569e-015 5.1684e-015
lhumerus -32.4098 -3.97681 84.5991
lradius 26.2372
lwrist -0.847042
lhand -21.2839 -14.1072
lfingers 7.12502
lthumb 5.10025 15.8114
rfemur -30.567 7.50018 16.2391
rtibia 17.3681
rfoot -21.837 -8.21435
rtoes -20.6444
lfemur -31.5835 -8.61362 -20.3075
ltibia 19.7211
lfoot -11.1947 7.53078
ltoes -35.8231
376
root 9.03529 16.411 13.0289 -154.745 1.04064 178.642
lowerback -24.1851 -2.83594 -4.73846
upperback -2.44669 -1.87361 0.169108
thorax 10.9777 -0.838557 2.33782
lowerneck 1.99675 -0.351994 -2.18222
upperneck 1.87211 -0.481742 4.35428
head 0.259346 -0.219073 1.71991
rclavicle -2.98177e-015 9.34288e-015
rhumerus -40.5732 -10.8974 -82.5003
rradius 35.0666
rwrist -1.69526
rhand -7.29243 -51.0015
rfingers 7.12502
rthumb 18.5896 -80.1332
lclavicle -2.98177e-015 9.34288e-015
lhumerus -32.1704 -4.31566 84.6939
lradius 26.2157
lwrist -0.531286
lhand -21.2284 -13.8245
lfingers 7.12502
lthumb 5.15382 16.0929
rfemur -29.9345 7.63092 16.2441
rtibia 15.9168
rfoot -21.2404 -8.17213
rtoes -19.6433
lfemur -31.0252 -8.511 -20.2195
ltibia 18.4383
lfoot -10.7489 7.52793
ltoes -35.3479
